<?xml version="1.0" standalone="no"?>
<!DOCTYPE svg PUBLIC "-//W3C//DTD SVG 20010904//EN"
 "http://www.w3.org/TR/2001/REC-SVG-20010904/DTD/svg10.dtd">
<svg version="1.0" xmlns="http://www.w3.org/2000/svg"
 width="914.000000pt" height="914.000000pt" viewBox="0 0 914.000000 914.000000"
 preserveAspectRatio="xMidYMid meet">
<metadata>
Created by potrace 1.14, written by Peter Selinger 2001-2017
</metadata>
<g transform="translate(0.000000,914.000000) scale(0.100000,-0.100000)"
fill="#000000" stroke="none">
<path d="M2073 8068 c-303 -524 -443 -767 -1502 -2597 -265 -458 -480 -839
-477 -846 2 -7 77 -138 166 -291 304 -522 1105 -1907 1570 -2711 l463 -803
2201 0 2201 0 209 363 c116 199 259 448 319 552 96 167 778 1346 1062 1835 56
96 217 374 358 618 230 396 256 445 246 465 -7 12 -245 425 -529 917 -629
1088 -622 1076 -680 1175 -123 212 -891 1541 -969 1677 l-16 28 -2201 0 -2201
0 -220 -382z m4607 -500 c134 -233 283 -490 331 -573 76 -131 528 -914 1168
-2024 164 -283 192 -337 183 -355 -8 -18 -930 -1614 -1702 -2948 l-225 -388
-1940 0 -1940 0 -80 138 c-43 75 -115 200 -160 277 -156 268 -1157 1999 -1538
2660 -82 143 -151 265 -154 271 -4 10 732 1293 1713 2987 l219 377 1940 0
1941 0 244 -422z"/>
<path d="M2496 7088 l-296 -512 114 -290 114 -290 -29 -37 c-16 -20 -29 -40
-29 -44 0 -4 41 -55 91 -113 l92 -107 176 -43 c141 -35 180 -41 195 -31 10 6
67 37 125 69 523 287 526 289 534 275 4 -8 7 -94 5 -190 -2 -96 -2 -175 -1
-175 0 0 59 33 130 74 l128 74 5 628 5 629 80 0 80 0 3 -173 2 -174 56 51
c103 94 276 161 419 161 142 0 317 -67 419 -161 l56 -51 2 174 3 173 80 0 80
0 3 -627 2 -627 88 -49 c48 -27 103 -59 122 -70 l35 -21 -3 176 c-2 97 1 180
6 185 5 5 72 -27 158 -75 82 -46 229 -127 327 -181 97 -54 177 -101 177 -105
0 -7 367 81 373 89 1 3 41 50 88 105 47 55 89 106 93 113 5 8 -2 26 -18 46
l-26 34 111 279 c61 153 111 285 112 293 0 9 -89 171 -198 360 -110 190 -241
417 -292 505 l-92 160 -1705 3 -1704 2 -296 -512z"/>
<path d="M4153 6380 c-64 -39 -85 -105 -55 -174 27 -59 66 -80 140 -74 48 4
60 10 89 41 28 31 33 44 33 84 0 30 -7 60 -20 81 -36 59 -126 80 -187 42z"/>
<path d="M4703 6385 c-91 -39 -99 -188 -13 -239 33 -19 108 -21 145 -4 38 17
68 73 67 124 -1 102 -102 162 -199 119z"/>
<path d="M1310 5039 c-127 -220 -230 -406 -227 -413 3 -7 250 -435 549 -952
300 -516 681 -1176 849 -1466 l304 -527 178 -1 177 0 -6 313 -7 312 176 413
c154 363 172 411 149 396 -15 -9 -55 -36 -90 -60 -35 -24 -67 -44 -72 -44 -6
0 -10 316 -10 843 l0 842 -87 32 c-212 75 -1042 375 -1078 389 -34 13 -51 32
-120 134 -44 66 -83 119 -87 120 -3 0 -28 -27 -55 -60 -26 -33 -54 -60 -61
-60 -7 0 -64 43 -127 95 -63 52 -116 95 -119 95 -2 0 -109 -180 -236 -401z"/>
<path d="M7322 5344 c-62 -51 -119 -94 -126 -94 -7 0 -36 29 -65 65 -29 36
-56 65 -60 65 -5 0 -115 -155 -172 -242 -3 -4 -266 -102 -585 -217 -318 -115
-587 -212 -597 -216 -16 -7 -17 -53 -15 -851 2 -464 -1 -844 -5 -844 -5 0 -43
24 -85 53 -107 74 -104 73 -87 35 7 -18 86 -204 174 -413 l161 -379 -7 -313
-6 -313 179 0 179 0 194 338 c306 529 896 1549 1213 2096 159 274 292 504 295
511 5 14 -453 815 -465 814 -4 0 -58 -43 -120 -95z"/>
<path d="M4375 5160 c-49 -16 -143 -45 -207 -65 l-118 -36 0 -131 0 -130 28 7
c15 3 110 33 212 66 103 32 193 59 200 59 8 0 112 -31 230 -68 l215 -68 -3
133 -3 133 -62 19 c-34 10 -128 40 -210 65 -81 25 -158 46 -170 46 -12 -1 -62
-14 -112 -30z"/>
<path d="M4265 4552 l-210 -68 -3 -133 -3 -133 23 8 c13 4 112 36 221 70 l198
62 217 -68 c119 -37 218 -67 219 -66 1 1 3 60 4 130 l1 129 -213 68 c-118 38
-221 68 -229 68 -8 0 -109 -30 -225 -67z"/>
<path d="M4325 3711 c-93 -64 -278 -191 -411 -282 l-241 -164 236 -134 c130
-74 311 -177 404 -229 92 -53 167 -101 167 -107 0 -6 -113 -148 -251 -315
l-251 -304 -17 -248 -16 -248 550 0 551 0 -18 248 c-9 136 -17 248 -17 249 -1
1 -113 138 -251 305 -137 166 -250 307 -250 313 0 6 134 87 298 180 470 267
510 290 509 291 -5 2 -652 444 -732 500 l-90 62 -170 -117z"/>
</g>
</svg>
